<svg width="159" height="48" viewBox="0 0 159 48" fill="none" xmlns="http://www.w3.org/2000/svg">
<path d="M54.718 22.4983V15.517H56.4568C58.0638 15.517 58.7751 16.0439 58.7751 17.3347C58.7751 18.0724 58.459 18.5466 57.8794 18.8101V18.8364C58.6697 19.1262 58.9595 19.7058 58.9595 20.4961C58.9595 22.1031 57.9057 22.4983 56.5621 22.4983M56.4831 18.4149C57.0627 18.4149 57.5896 18.2041 57.5896 17.4401C57.5896 16.7025 57.0363 16.5444 56.4831 16.5444H55.8508V18.4149H56.4831ZM56.6148 21.4709C57.4315 21.4709 57.774 21.1811 57.774 20.4171C57.774 19.6531 57.3788 19.3369 56.6148 19.3369H55.8508V21.4445H56.6148V21.4709Z" fill="#00467F"/>
<path d="M63.1219 22.4983L62.1208 19.6267H61.2251V22.4983H60.0659V15.517H61.91C63.4117 15.517 64.123 16.0965 64.123 17.4665C64.123 18.3622 63.7542 18.8891 63.1482 19.1789L64.3601 22.5246M61.91 18.6256C62.4369 18.6256 62.9902 18.4412 62.9902 17.5455C62.9902 16.5707 62.4369 16.4917 61.91 16.4917H61.2514V18.6256H61.91Z" fill="#00467F"/>
<path d="M66.5204 15.517H65.3612V22.4983H66.5204V15.517Z" fill="#00467F"/>
<path d="M68.9177 22.4983V16.5708H67.4688V15.517H71.4995V16.5708H70.0505V22.4983" fill="#00467F"/>
<path d="M73.607 15.517H72.4479V22.4983H73.607V15.517Z" fill="#00467F"/>
<path d="M77.5587 17.3611C77.4007 16.7552 77.1636 16.3864 76.6103 16.3864C76.1098 16.3864 75.82 16.6498 75.82 17.0977C75.82 18.5466 78.6916 18.3886 78.6916 20.6806C78.6916 21.8924 77.9012 22.5774 76.6367 22.5774C75.3985 22.5774 74.8189 21.9714 74.5818 20.7069L75.6619 20.5225C75.7936 21.2338 76.0571 21.6026 76.6894 21.6026C77.2163 21.6026 77.5851 21.3128 77.5851 20.7596C77.5851 19.2316 74.7399 19.416 74.7399 17.1767C74.7399 16.0966 75.4512 15.4116 76.6103 15.4116C77.8222 15.4116 78.3754 16.0966 78.5598 17.1504" fill="#00467F"/>
<path d="M82.9068 22.4983V19.416H80.9309V22.4983H79.7717V15.517H80.9309V18.3622H82.9068V15.517H84.0396V22.4983" fill="#00467F"/>
<path d="M91.2843 20.2327C91.0735 21.7871 90.4149 22.6037 89.1503 22.6037C87.4906 22.6037 86.9374 21.2338 86.9374 18.9945C86.9374 16.966 87.517 15.438 89.1767 15.438C90.5203 15.438 91.0471 16.281 91.2316 17.7036L90.1514 17.809C89.9934 16.9133 89.7036 16.4918 89.1767 16.4918C88.4654 16.4918 88.0965 17.2294 88.0965 19.0209C88.0965 20.9704 88.4127 21.6026 89.1767 21.6026C89.7299 21.6026 90.0724 21.1021 90.2041 20.1537" fill="#00467F"/>
<path d="M92.1273 19.0209C92.1273 16.7025 92.7859 15.438 94.4456 15.438C96.079 15.438 96.764 16.7025 96.764 19.0209C96.764 21.3129 96.0527 22.6037 94.4456 22.6037C92.8386 22.6037 92.1273 21.3129 92.1273 19.0209ZM95.5785 19.0209C95.5785 17.2031 95.2096 16.4391 94.4456 16.4391C93.708 16.4391 93.3128 17.2031 93.3128 19.0209C93.3128 20.9177 93.7343 21.6026 94.4456 21.6026C95.1833 21.6026 95.5785 20.8913 95.5785 19.0209Z" fill="#00467F"/>
<path d="M97.8969 22.4983V15.517H99.056V21.4445H101.401V22.4983" fill="#00467F"/>
<path d="M105.352 15.517H106.485V20.2853C106.485 21.787 105.827 22.6037 104.325 22.6037C102.823 22.6037 102.217 21.8133 102.217 20.2853V15.517H103.377V20.4434C103.377 21.2601 103.666 21.6026 104.351 21.6026C105.01 21.6026 105.352 21.2601 105.352 20.4434" fill="#00467F"/>
<path d="M112.255 22.4983V17.3611H112.228L110.964 22.4983H110.147L108.883 17.3611H108.856V22.4983H107.829V15.517H109.41L110.542 20.2063H110.569L111.754 15.517H113.282V22.4983" fill="#00467F"/>
<path d="M114.678 22.4983V15.517H116.417C118.024 15.517 118.736 16.0439 118.736 17.3347C118.736 18.0724 118.419 18.5466 117.84 18.8101V18.8364C118.63 19.1262 118.92 19.7058 118.92 20.4961C118.92 22.1031 117.866 22.4983 116.523 22.4983M116.444 18.4149C117.049 18.4149 117.55 18.2041 117.55 17.4401C117.55 16.7025 116.997 16.5444 116.444 16.5444H115.785V18.4149H116.444ZM116.575 21.4709C117.392 21.4709 117.734 21.1811 117.734 20.4171C117.734 19.6531 117.339 19.3369 116.575 19.3369H115.811V21.4445H116.575V21.4709Z" fill="#00467F"/>
<path d="M121.212 15.517H120.053V22.4983H121.212V15.517Z" fill="#00467F"/>
<path d="M125.717 22.4983L125.348 20.7069H123.662L123.293 22.4983H122.134L123.715 15.517H125.269L126.902 22.4983M123.873 19.6794H125.137L124.505 16.6234H124.479L123.873 19.6794Z" fill="#00467F"/>
<path d="M55.8772 24.8956H54.718V31.9033H55.8772V24.8956Z" fill="#00467F"/>
<path d="M60.5402 31.877L58.3009 27.0559H58.2745V31.877H57.2471V24.8956H58.5906L60.4875 29.1371H60.5138V24.8956H61.5676V31.877" fill="#00467F"/>
<path d="M65.5192 26.7398C65.3611 26.1339 65.124 25.7651 64.5708 25.7651C64.0702 25.7651 63.7804 26.0285 63.7804 26.4764C63.7804 27.9253 66.652 27.7673 66.652 30.0592C66.652 31.2711 65.8617 31.9561 64.5971 31.9561C63.3589 31.9561 62.753 31.3501 62.5422 30.0856L63.6224 29.9012C63.7541 30.6125 64.0175 30.9813 64.6498 30.9813C65.1767 30.9813 65.5455 30.7179 65.5455 30.1646C65.5455 28.6366 62.7267 28.7947 62.7267 26.5817C62.7267 25.5016 63.438 24.8167 64.5971 24.8167C65.809 24.8167 66.3622 25.5016 66.5466 26.5554" fill="#00467F"/>
<path d="M68.7596 31.877V25.9231H67.3107V24.8956H71.3414V25.9231H69.8924V31.877" fill="#00467F"/>
<path d="M73.4488 24.8956H72.2897V31.9033H73.4488V24.8956Z" fill="#00467F"/>
<path d="M75.8201 31.877V25.9231H74.3975V24.8956H78.4282V25.9231H76.9792V31.877" fill="#00467F"/>
<path d="M82.4852 24.8956H83.6181V29.664C83.6181 31.1657 82.9594 31.9824 81.4578 31.9824C79.9561 31.9824 79.3502 31.1657 79.3502 29.664V24.8956H80.5094V29.8221C80.5094 30.6388 80.7992 30.9813 81.4841 30.9813C82.1427 30.9813 82.4852 30.6388 82.4852 29.8221" fill="#00467F"/>
<path d="M85.9891 31.877V25.9231H84.5402V24.8956H88.5709V25.9231H87.1483V31.877" fill="#00467F"/>
<path d="M89.5192 31.877V24.8956H93.102V25.9231H90.6783V27.7672H92.4961V28.7683H90.6783V30.8232H93.2338V31.877" fill="#00467F"/>
<path d="M95.7103 28.3733C95.7103 26.055 96.3953 24.7904 98.0287 24.7904C99.662 24.7904 100.347 26.055 100.347 28.3733C100.347 30.6653 99.6357 31.9562 98.0287 31.9562C96.4216 31.9562 95.7103 30.6653 95.7103 28.3733ZM99.1615 28.3733C99.1615 26.5555 98.7927 25.7915 98.0287 25.7915C97.291 25.7915 96.8958 26.5555 96.8958 28.3733C96.8958 30.2701 97.3174 30.9814 98.0287 30.9814C98.7663 30.9814 99.1615 30.2701 99.1615 28.3733Z" fill="#00467F"/>
<path d="M101.48 31.877V24.8956H105.115V25.9231H102.639V27.7672H104.483V28.7683H102.639V31.877" fill="#00467F"/>
<path d="M108.751 31.877V25.9231H107.302V24.8956H111.333V25.9231H109.884V31.877" fill="#00467F"/>
<path d="M112.281 31.877V24.8956H115.838V25.9231H113.44V27.7672H115.232V28.7683H113.44V30.8232H115.969V31.877" fill="#00467F"/>
<path d="M121.027 29.5851C120.817 31.1395 120.158 31.9562 118.893 31.9562C117.234 31.9562 116.681 30.5862 116.681 28.3469C116.681 26.3184 117.26 24.7904 118.92 24.7904C120.263 24.7904 120.79 25.6334 120.975 27.056L119.895 27.1614C119.737 26.2657 119.447 25.8442 118.92 25.8442C118.209 25.8442 117.84 26.6082 117.84 28.3733C117.84 30.3228 118.156 30.9814 118.92 30.9814C119.473 30.9814 119.816 30.4809 119.947 29.5324" fill="#00467F"/>
<path d="M125.19 31.877V28.7683H123.214V31.877H122.055V24.8956H123.214V27.7409H125.19V24.8956H126.349V31.877" fill="#00467F"/>
<path d="M131.012 31.877L128.773 27.0559H128.746V31.877H127.719V24.8956H129.063L130.986 29.1371V24.8956H132.04V31.877" fill="#00467F"/>
<path d="M133.199 28.3733C133.199 26.055 133.857 24.7904 135.517 24.7904C137.15 24.7904 137.835 26.055 137.835 28.3733C137.835 30.6653 137.124 31.9562 135.517 31.9562C133.884 31.9562 133.199 30.6653 133.199 28.3733ZM136.623 28.3733C136.623 26.5555 136.255 25.7915 135.491 25.7915C134.753 25.7915 134.358 26.5555 134.358 28.3733C134.358 30.2701 134.779 30.9814 135.491 30.9814C136.228 30.9814 136.623 30.2701 136.623 28.3733Z" fill="#00467F"/>
<path d="M138.942 31.877V24.8956H140.101V30.8232H142.446V31.877" fill="#00467F"/>
<path d="M143.025 28.3733C143.025 26.055 143.71 24.7904 145.344 24.7904C146.977 24.7904 147.662 26.055 147.662 28.3733C147.662 30.6653 146.951 31.9562 145.344 31.9562C143.737 31.9562 143.025 30.6653 143.025 28.3733ZM146.477 28.3733C146.477 26.5555 146.108 25.7915 145.344 25.7915C144.606 25.7915 144.211 26.5555 144.211 28.3733C144.211 30.2701 144.632 30.9814 145.344 30.9814C146.081 30.9814 146.477 30.2701 146.477 28.3733Z" fill="#00467F"/>
<path d="M152.009 31.8771V31.2975C151.64 31.7981 151.192 31.9561 150.613 31.9561C149.269 31.9561 148.558 30.9287 148.558 28.3469C148.558 26.292 149.19 24.764 150.85 24.764C152.22 24.764 152.747 25.6598 152.931 27.0033L151.851 27.1087C151.693 26.2657 151.403 25.8178 150.85 25.8178C150.112 25.8178 149.717 26.5291 149.717 28.3469C149.717 30.191 150.007 30.9287 150.85 30.9287C151.508 30.9287 151.877 30.4018 151.877 29.6641V29.3217H150.85V28.3733H152.931V31.8508" fill="#00467F"/>
<path d="M156.856 24.8956L155.75 27.7145H155.723L154.67 24.8956H153.431L155.17 29.0581V31.877H156.329V29.0581L158.068 24.8956" fill="#00467F"/>
<path d="M48 0H0V48H48V0Z" fill="#003E6B"/>
<path d="M4.87378 31.9561V15.4116H8.9572C12.7245 15.4116 14.4632 16.6498 14.4632 19.7058C14.4632 21.4446 13.6992 22.5774 12.3293 23.2096V23.2623C14.1998 23.921 14.8584 25.3436 14.8584 27.214C14.8584 31.034 12.382 31.9561 9.16796 31.9561M9.06258 22.2876C10.4589 22.2876 11.7234 21.787 11.7234 19.9693C11.7234 18.2042 10.4062 17.888 9.06258 17.888H7.53459V22.3139H9.06258V22.2876ZM9.32603 29.5324C11.2492 29.5324 12.0659 28.8738 12.0659 27.056C12.0659 25.2645 11.1438 24.5269 9.35238 24.5269H7.53459V29.5324H9.32603Z" fill="white"/>
<path d="M26.8453 26.5818C26.3448 30.27 24.7904 32.1669 21.7871 32.1669C17.8354 32.1669 16.5446 28.9528 16.5446 23.6312C16.5446 18.8628 17.9145 15.2272 21.8398 15.2272C25.0275 15.2272 26.2921 17.2031 26.6873 20.5752L24.1582 20.8123C23.8157 18.7311 23.1044 17.6773 21.8925 17.6773C20.2065 17.6773 19.3371 19.4424 19.3371 23.6312C19.3371 28.2152 20.1011 29.7432 21.8662 29.7432C23.1834 29.7432 23.9738 28.584 24.3162 26.3183" fill="white"/>
<path d="M31.9034 15.438H29.1636V31.9825H31.9034V15.438Z" fill="white"/>
<path d="M37.5676 31.9561V17.9144H34.1428V15.438H43.6796V17.9144H40.2811V31.9561" fill="white"/>
<path d="M49.1592 4.0307V1.13278H48.4479V0.526855H50.5028V1.13278H49.7915V4.0307M53.1372 4.0307V1.60698H53.1109L52.5576 4.0307H52.0571L51.5039 1.60698H51.4775V4.0307H50.8716V0.526855H51.7937L52.2942 2.71346H52.3205L52.8474 0.526855H53.7432V4.0307H53.1372Z" fill="#003E6B"/>
</svg>
