<svg width="145" height="48" viewBox="0 0 145 48" fill="none" xmlns="http://www.w3.org/2000/svg">
<g clip-path="url(#clip0_379_3008)">
<path d="M0 24.6225V22.2975L2.25389 22.0425C2.74974 21.9675 2.82487 21.855 2.82487 21.2925V3.2925C2.82487 2.7525 2.74974 2.6025 2.25389 2.5425L0 2.2875V0H10.5181V2.3625L7.55803 2.655C7.0171 2.6925 6.98705 2.8425 6.98705 3.345V21.5025H14.9658C15.364 21.5025 15.4692 21.5025 15.5443 21.0975L16.1153 17.64H19.1205V24.5925L0 24.6225Z" fill="#F15A22"/>
<path d="M33.5153 24.6225L33.1622 22.4775H33.0495C31.4134 24.182 29.1407 25.1303 26.7762 25.095C22.2684 25.095 21.6824 21.9675 21.6824 19.9275C21.6824 16.29 23.8912 14.535 28.2412 14.175L32.749 13.8075V11.9175C32.749 9.62249 32.3583 8.38499 29.616 8.38499C27.6552 8.38499 26.3329 8.52749 26.3329 11.04L22.4863 10.68C22.4863 6.01499 26.6559 5.42999 29.6837 5.42999C34.8526 5.42999 36.7834 6.92999 36.7834 11.9475V21.315C36.7834 21.8925 36.7834 21.9675 37.3544 22.065L39.0974 22.32V24.645L33.5153 24.6225ZM32.764 16.4325L29.3832 16.725C26.7085 16.98 25.8896 17.745 25.8896 19.4925C25.8896 21.24 26.7085 21.825 28.1435 21.825C29.898 21.7001 31.5404 20.9179 32.7414 19.635L32.764 16.4325Z" fill="#F15A22"/>
<path d="M53.1242 24.6225V22.3275L54.9048 22.11C55.4006 22.0425 55.4758 21.825 55.4758 21.36V12.9375C55.4758 10.7475 55.2278 8.92499 52.9439 8.92499C51.1622 9.05364 49.4605 9.71483 48.0605 10.8225V21.3225C48.0605 21.9 48.0605 21.975 48.6315 22.0725L50.5172 22.3275V24.6525H41.682V22.2525L43.3874 22.035C43.8908 21.96 43.9584 21.8475 43.9584 21.285V9.58499C43.9584 9.17999 43.8532 8.92499 43.5001 8.83499L41.5468 8.12999L41.8999 5.79749H47.1589L47.4444 7.79999L47.5872 7.83749C49.4999 6.35061 51.8357 5.50769 54.2587 5.42999C58.1053 5.42999 59.5703 7.90499 59.5703 12.0975V21.315C59.5703 21.8925 59.5703 21.9675 60.1338 22.065L62.1022 22.32V24.645L53.1242 24.6225Z" fill="#F15A22"/>
<path d="M78.8259 8.66997C79.6964 9.72689 80.1741 11.0517 80.1782 12.42C80.1782 16.6425 76.9026 18.975 72.7253 18.975C71.7132 19.0032 70.702 18.8922 69.7202 18.645L68.0748 21.4125L72.4624 21.63C78.8108 21.96 81.8386 22.29 81.8386 26.6925C81.8386 30.555 78.5554 32.8125 72.3572 32.8125C66.159 32.8125 63.8375 31.1025 63.8375 28.3125C63.8375 26.565 64.7992 25.515 66.0088 24.345C65.043 24.0137 64.3882 23.1143 64.3709 22.095C64.3881 21.3152 64.7087 20.5727 65.265 20.025C65.8285 19.365 66.5798 18.4575 67.2259 17.775C65.588 16.8675 64.4611 14.9775 64.4611 12.4275C64.4611 8.38497 67.2409 5.42997 72.3347 5.42997C73.4627 5.41016 74.5886 5.53365 75.6854 5.79747H82.1766V8.45247L78.8259 8.66997ZM68.8411 25.17C68.1023 25.8335 67.6232 26.737 67.4888 27.72C67.4888 29.4 69.3746 29.97 72.4774 29.97C74.2956 29.97 77.7365 29.685 77.7365 27.3525C77.7365 25.7475 76.3842 25.6725 74.3181 25.53L68.8411 25.17ZM72.545 8.42247C70.1634 8.42247 68.4129 9.65997 68.4129 12.39C68.4129 14.4675 69.5173 16.035 72.4399 16.035C74.9041 16.035 76.5419 14.5725 76.5419 12.285C76.5419 9.76497 75.0468 8.38497 72.545 8.38497V8.42247Z" fill="#F15A22"/>
<path d="M95.7901 24.6225L95.4369 22.4775H95.3318C93.6951 24.1813 91.4228 25.1294 89.0584 25.095C84.5507 25.095 83.9572 21.9675 83.9572 19.9275C83.9572 16.29 86.166 14.535 90.516 14.175L95.0237 13.8075V11.9175C95.0237 9.62249 94.6331 8.38499 91.8833 8.38499C89.9224 8.38499 88.6002 8.52749 88.6002 11.04L84.7535 10.68C84.7535 6.01499 88.9232 5.42999 91.9585 5.42999C97.1198 5.42999 99.0507 6.92999 99.0507 11.9475V21.315C99.0507 21.8925 99.0882 21.9675 99.6217 22.065L101.365 22.32V24.645L95.7901 24.6225ZM95.0388 16.4325L91.6504 16.725C88.9758 16.98 88.1569 17.745 88.1569 19.4925C88.1569 21.24 88.9758 21.825 90.4108 21.825C92.1643 21.6965 93.8054 20.9148 95.0087 19.635L95.0388 16.4325Z" fill="#F15A22"/>
<path d="M103.852 24.6225V22.2525L105.557 22.035C106.06 21.96 106.128 21.8475 106.128 21.285V9.58497C106.177 9.25491 105.98 8.93767 105.662 8.83497L103.709 8.14497L104.062 5.81247H109.374L109.764 8.46747H109.877C111.049 6.89997 112.724 5.40747 115.136 5.40747C116.072 5.41392 117.004 5.52461 117.916 5.73747V11.7375L114.708 11.595L114.28 9.34497C114.242 9.01497 114.174 8.93997 113.851 8.93997C112.499 8.93997 110.966 10.1475 110.253 10.8375V21.2775C110.253 21.855 110.328 21.9675 110.861 22.0275L114.204 22.32V24.645L103.852 24.6225Z" fill="#F15A22"/>
<path d="M131.702 24.6225L131.349 22.4775H131.236C129.6 24.182 127.328 25.1303 124.963 25.095C120.455 25.095 119.869 21.9675 119.869 19.9275C119.869 16.29 122.078 14.535 126.428 14.175L130.936 13.8075V11.9175C130.936 9.62249 130.538 8.38499 127.795 8.38499C125.835 8.38499 124.52 8.52749 124.52 11.04L120.666 10.68C120.666 6.01499 124.835 5.42999 127.871 5.42999C133.039 5.42999 134.963 6.92999 134.963 11.9475V21.315C134.963 21.8925 134.963 21.9675 135.534 22.065L137.277 22.32V24.645L131.702 24.6225ZM130.951 16.4325L127.563 16.725C124.888 16.98 124.061 17.745 124.061 19.4925C124.061 21.24 124.888 21.825 126.315 21.825C128.082 21.7057 129.738 20.9233 130.951 19.635V16.4325Z" fill="#F15A22"/>
<path d="M142.626 25.0575C141.168 25.0575 140.425 24.3675 140.425 22.965C140.425 21.5625 141.176 20.8725 142.626 20.8725C144.076 20.8725 144.797 21.6225 144.797 22.965C144.797 24.3075 144.053 25.0575 142.626 25.0575Z" fill="#F15A22"/>
<path d="M1.87068 38.2875C2.25616 38.2759 2.63916 38.3529 2.99011 38.5125C3.27627 38.6527 3.51424 38.8746 3.67379 39.15C3.83744 39.435 3.92053 39.7591 3.9142 40.0875C3.9142 40.3007 3.88385 40.5128 3.82405 40.7175C3.76597 40.9341 3.67202 41.1394 3.54607 41.325C3.40536 41.5395 3.23314 41.7317 3.03519 41.895C2.80603 42.0901 2.5537 42.2564 2.28389 42.39V45.1725H1.08933V41.8575C1.35204 41.7681 1.60401 41.6499 1.84063 41.505C2.0307 41.3909 2.20285 41.2494 2.35151 41.085C2.47404 40.9457 2.57072 40.7857 2.637 40.6125C2.69812 40.4597 2.73121 40.2971 2.73467 40.1325C2.73963 39.9639 2.70354 39.7966 2.62949 39.645C2.55671 39.5094 2.44393 39.3995 2.30643 39.33C2.14033 39.2501 1.95731 39.2115 1.77301 39.2175C1.61293 39.2189 1.45375 39.2416 1.2997 39.285C1.14496 39.3301 0.994196 39.3878 0.848919 39.4575C0.719653 39.5124 0.596308 39.5802 0.480784 39.66L0.0600586 38.8275C0.320503 38.6563 0.603757 38.5225 0.901509 38.43C1.21503 38.3318 1.54212 38.2837 1.87068 38.2875Z" fill="#636466"/>
<path d="M6.50616 40.2C6.94457 40.1912 7.37909 40.2836 7.77585 40.47C8.14002 40.6533 8.43899 40.9439 8.63232 41.3025C8.85134 41.7341 8.95731 42.214 8.94035 42.6975C8.95544 43.1776 8.86036 43.6547 8.66237 44.0925C8.49353 44.4554 8.21849 44.7587 7.87351 44.9625C7.51145 45.1657 7.10179 45.2692 6.68647 45.2625C6.28992 45.2707 5.89753 45.1805 5.5445 45C5.22077 44.8358 4.95768 44.5732 4.7932 44.25C4.61241 43.879 4.52474 43.4698 4.53776 43.0575V42.4725H7.75331C7.76722 42.1 7.63516 41.7368 7.38517 41.46C7.11715 41.2058 6.75479 41.0753 6.38595 41.1C6.10581 41.0976 5.82623 41.1253 5.55201 41.1825C5.29392 41.2496 5.04245 41.34 4.80072 41.4525V40.5525C5.04061 40.441 5.29276 40.3579 5.55201 40.305C5.86497 40.2336 6.18513 40.1983 6.50616 40.2ZM5.65719 43.2525C5.65931 43.4558 5.7001 43.6569 5.7774 43.845C5.84166 44.0136 5.95727 44.1579 6.10797 44.2575C6.27704 44.3615 6.47296 44.4136 6.67144 44.4075C6.95405 44.4237 7.22928 44.3138 7.42274 44.1075C7.62082 43.8658 7.73193 43.5647 7.73828 43.2525H5.65719Z" fill="#636466"/>
<path d="M11.1117 45.1725L13.1928 40.4925L13.0575 40.1175L12.1335 40.3875L11.9306 39.7275L12.7345 39.5025C12.657 39.4098 12.5557 39.3398 12.4415 39.3C12.3207 39.2583 12.1936 39.238 12.0658 39.24C11.9809 39.2323 11.8954 39.2323 11.8104 39.24H11.6V38.3475H11.7954C11.878 38.3475 11.9607 38.3475 12.0433 38.3475H12.2762C12.5084 38.3441 12.7395 38.3796 12.9599 38.4525C13.1416 38.5096 13.3066 38.61 13.4407 38.745C13.5884 38.8843 13.7127 39.0463 13.8088 39.225L14.7029 38.9475L14.9057 39.63L14.0868 39.87L15.4617 43.62C15.5262 43.8336 15.6279 44.0342 15.7622 44.2125C15.8475 44.3051 15.9668 44.3592 16.0928 44.3625H16.2355H16.3783V45.225C16.2838 45.2714 16.1822 45.3018 16.0778 45.315C15.9537 45.3375 15.8281 45.3501 15.7021 45.3525C15.5213 45.3555 15.3419 45.3197 15.1762 45.2475C15.0326 45.1791 14.9105 45.0728 14.8231 44.94C14.7235 44.7878 14.6428 44.6241 14.5827 44.4525L14.0718 43.0125L13.9591 42.6975C13.9591 42.585 13.8915 42.48 13.8539 42.375C13.818 42.2769 13.7879 42.1767 13.7638 42.075C13.7638 41.985 13.7187 41.9025 13.7037 41.8275H13.6661C13.6135 42.0075 13.5609 42.195 13.4858 42.405C13.4107 42.615 13.343 42.8025 13.2679 42.975L12.2837 45.225L11.1117 45.1725Z" fill="#636466"/>
<path d="M20.9762 42.78L22.5915 45.1725H21.4721L20.3451 43.5075L19.2708 45.1725H18.2565L19.8117 42.795L18.249 40.545H19.376L20.4278 42.135L21.5247 40.545H22.5314L20.9762 42.78Z" fill="#636466"/>
<path d="M25.4239 41.325C25.4239 41.255 25.4013 41.1725 25.3563 41.0775L25.2661 40.755C25.2661 40.6425 25.2135 40.5375 25.1835 40.4475C25.1534 40.3575 25.1835 40.275 25.1309 40.23C25.1309 40.275 25.1309 40.35 25.0783 40.4475C25.0257 40.545 25.0257 40.6425 24.9956 40.755C24.9656 40.8675 24.943 40.9725 24.9205 41.0775C24.8997 41.1645 24.872 41.2498 24.8379 41.3325L24.4697 42.585H23.6433L22.7643 39.6525H23.5156L23.9138 41.055C23.9138 41.1525 23.9588 41.2575 23.9814 41.3775C24.0104 41.4886 24.0329 41.6013 24.049 41.715C24.049 41.825 24.064 41.915 24.0941 41.985C24.0941 41.915 24.1091 41.825 24.1392 41.715L24.2068 41.3925C24.2068 41.2875 24.2518 41.2125 24.2669 41.1525L24.7252 39.6525H25.529L25.9723 41.1525C25.9723 41.2125 25.9723 41.295 26.0324 41.4C26.0925 41.505 26.0775 41.61 26.1 41.715C26.1226 41.82 26.1 41.91 26.1 41.985C26.1 41.925 26.1 41.8425 26.1451 41.73C26.1902 41.6175 26.1902 41.505 26.2127 41.385C26.2353 41.265 26.2728 41.1525 26.3029 41.055L26.6936 39.6525H27.4449L26.5433 42.585H25.7695L25.4239 41.325Z" fill="#636466"/>
<path d="M29.263 45.1725H28.2262V40.5225H29.1202V40.995C29.5407 40.6374 30.0707 40.4337 30.6228 40.4175C31.1043 40.3439 31.5782 40.5895 31.7948 41.025C32.2206 40.6381 32.7744 40.4218 33.35 40.4175C34.3117 40.4175 34.7024 40.95 34.7024 41.9925V45.1725H33.7182V42.1725C33.7182 41.6175 33.5829 41.3025 33.0721 41.3025C32.6825 41.3371 32.314 41.4947 32.0202 41.7525C32.0202 41.8275 32.0202 41.9175 32.0202 42V45.195H31.0285V42.195C31.0285 41.64 30.9008 41.325 30.3899 41.325C29.9849 41.3596 29.6023 41.5256 29.3005 41.7975L29.263 45.1725Z" fill="#636466"/>
<path d="M37.73 40.2C38.1661 40.1902 38.5985 40.2826 38.9922 40.47C39.3594 40.6492 39.6595 40.9409 39.8487 41.3025C40.0738 41.7321 40.1826 42.213 40.1642 42.6975C40.1772 43.1782 40.0796 43.6554 39.8788 44.0925C39.7145 44.4584 39.4383 44.763 39.0899 44.9625C38.7306 45.1658 38.3233 45.2694 37.9104 45.2625C37.5137 45.2716 37.1211 45.1814 36.7684 45C36.4437 44.8371 36.1803 44.5741 36.0171 44.25C35.8399 43.8778 35.7524 43.4694 35.7616 43.0575V42.4725H38.9847C38.9918 42.1011 38.8606 41.7403 38.6166 41.46C38.3448 41.207 37.9807 41.0768 37.6098 41.1C37.3297 41.0984 37.0502 41.1261 36.7759 41.1825C36.5178 41.2496 36.2663 41.34 36.0246 41.4525V40.5525C36.2649 40.4421 36.517 40.3591 36.7759 40.305C37.0889 40.2338 37.409 40.1985 37.73 40.2ZM36.8811 43.2525C36.8844 43.455 36.9225 43.6554 36.9938 43.845C37.0609 44.0142 37.179 44.1583 37.3319 44.2575C37.4986 44.3605 37.6918 44.4126 37.8878 44.4075C38.1701 44.4216 38.4445 44.3121 38.6391 44.1075C38.8426 43.8678 38.9591 43.5665 38.9697 43.2525H36.8811Z" fill="#636466"/>
<path d="M43.3422 45.2625C42.8824 45.278 42.4321 45.129 42.0725 44.8425C41.7108 44.5237 41.4497 44.1068 41.3212 43.6425C41.1435 43.0286 41.0599 42.3914 41.0733 41.7525C41.0607 41.1225 41.1366 40.4939 41.2987 39.885C41.4195 39.4195 41.682 39.0029 42.05 38.6925C42.8292 38.1434 43.8702 38.1434 44.6495 38.6925C45.0093 39.0098 45.2701 39.4238 45.4008 39.885C45.5788 40.4937 45.6624 41.126 45.6487 41.76C45.6604 42.3948 45.5845 43.0283 45.4233 43.6425C45.2985 44.1084 45.0368 44.5264 44.672 44.8425C44.2921 45.1344 43.8212 45.2832 43.3422 45.2625ZM42.2153 41.2725H44.4691C44.4683 40.8654 44.4179 40.4599 44.3189 40.065C44.2658 39.8042 44.1379 39.5645 43.9508 39.375C43.5927 39.0737 43.0692 39.0737 42.7111 39.375C42.5238 39.5633 42.3981 39.8039 42.3505 40.065C42.2636 40.4617 42.2182 40.8664 42.2153 41.2725ZM43.3422 44.4075C43.577 44.4146 43.8057 44.3313 43.9808 44.175C44.1749 43.9657 44.3052 43.7056 44.3565 43.425C44.4497 42.9937 44.4975 42.5538 44.4992 42.1125H42.2453C42.2435 42.5507 42.2863 42.9879 42.373 43.4175C42.4157 43.6993 42.5442 43.9612 42.7412 44.1675C42.9036 44.3209 43.1186 44.4067 43.3422 44.4075Z" fill="#636466"/>
<path d="M47.7748 42.3975L49.5929 40.5225H50.7499L49.1647 42.195L50.8701 45.195H49.7356L48.3908 42.8775L47.7748 43.4775V45.1725H46.7455V38.3775H47.7748V42.3975Z" fill="#636466"/>
<path d="M53.7176 41.325C53.7176 41.255 53.695 41.1725 53.65 41.0775C53.65 40.9725 53.5974 40.8675 53.5673 40.755L53.4847 40.4475C53.4847 40.35 53.4847 40.275 53.4321 40.23C53.4321 40.275 53.4321 40.35 53.372 40.4475C53.3119 40.545 53.3269 40.6425 53.2968 40.755C53.2668 40.8675 53.2443 40.9725 53.2142 41.0775C53.1954 41.1642 53.1703 41.2494 53.1391 41.3325L52.7709 42.585H51.9445L51.058 39.6525H51.8093L52.2075 41.055C52.2075 41.1525 52.2525 41.2575 52.2751 41.3775C52.2976 41.4975 52.3202 41.61 52.3427 41.715C52.3652 41.82 52.3427 41.9175 52.3878 41.985C52.3878 41.915 52.4028 41.825 52.4329 41.715C52.4482 41.6061 52.4708 41.4983 52.5005 41.3925C52.5005 41.2875 52.5455 41.2125 52.5606 41.1525L53.0189 39.6525H53.8228L54.266 41.1525C54.266 41.2125 54.266 41.295 54.3261 41.4L54.3937 41.715C54.3995 41.8049 54.3995 41.8951 54.3937 41.985C54.3937 41.925 54.3937 41.8425 54.3937 41.73C54.3937 41.6175 54.4388 41.505 54.4689 41.385C54.4989 41.265 54.5215 41.1525 54.5515 41.055L55.0699 39.6525H55.8212L54.9196 42.585H54.0932L53.7176 41.325Z" fill="#636466"/>
<path d="M58.2629 40.2C58.7013 40.1912 59.1358 40.2836 59.5326 40.47C59.8968 40.6533 60.1958 40.9439 60.3891 41.3025C60.6081 41.7341 60.7141 42.214 60.6971 42.6975C60.7122 43.1776 60.6171 43.6547 60.4191 44.0925C60.2503 44.4554 59.9753 44.7587 59.6303 44.9625C59.2682 45.1657 58.8585 45.2692 58.4432 45.2625C58.0543 45.267 57.6701 45.1769 57.3238 45C57.0001 44.8358 56.737 44.5732 56.5725 44.25C56.3917 43.879 56.304 43.4698 56.3171 43.0575V42.4725H59.5326C59.5465 42.1 59.4145 41.7368 59.1645 41.46C58.8964 41.2058 58.5341 41.0753 58.1652 41.1C57.8851 41.0976 57.6055 41.1253 57.3313 41.1825C57.0732 41.2496 56.8218 41.34 56.58 41.4525V40.5525C56.8199 40.441 57.0721 40.3579 57.3313 40.305C57.6369 40.2353 57.9494 40.2 58.2629 40.2ZM57.414 43.2525C57.4161 43.4558 57.4569 43.6569 57.5342 43.845C57.5984 44.0136 57.714 44.1579 57.8647 44.2575C58.0338 44.3615 58.2297 44.4136 58.4282 44.4075C58.7108 44.4237 58.986 44.3138 59.1795 44.1075C59.383 43.8678 59.4995 43.5665 59.5101 43.2525H57.414Z" fill="#636466"/>
<path d="M61.1854 40.5225H62.3049L63.4468 44.0025L64.5963 40.515H65.6632C65.0396 42.2175 64.3183 44.1525 63.7173 45.765C63.3417 46.785 62.9209 47.175 62.0945 47.175C61.7734 47.1766 61.4549 47.1181 61.1554 47.0025L61.2606 46.2525C61.5025 46.3373 61.7557 46.3853 62.0119 46.395C62.3274 46.395 62.5753 46.23 62.7632 45.7575L62.9585 45.27L61.1854 40.5225Z" fill="#636466"/>
<path d="M68.0675 40.2C68.5035 40.1902 68.9359 40.2826 69.3296 40.47C69.6968 40.6492 69.9969 40.9409 70.1861 41.3025C70.4112 41.7321 70.52 42.213 70.5017 42.6975C70.5147 43.1782 70.417 43.6554 70.2162 44.0925C70.0618 44.453 69.7993 44.7569 69.4649 44.9625C69.1056 45.1658 68.6983 45.2694 68.2853 45.2625C67.871 45.2806 67.4592 45.1901 67.0908 45C66.7661 44.8371 66.5027 44.5741 66.3395 44.25C66.1623 43.8778 66.0748 43.4694 66.084 43.0575V42.4725H69.3447C69.3518 42.1011 69.2206 41.7403 68.9765 41.46C68.7047 41.207 68.3407 41.0768 67.9698 41.1C67.6897 41.0984 67.4102 41.1261 67.1359 41.1825C66.8778 41.2496 66.6263 41.34 66.3846 41.4525V40.5525C66.6249 40.4421 66.8769 40.3591 67.1359 40.305C67.4415 40.2355 67.754 40.2002 68.0675 40.2ZM67.2185 43.2525C67.2218 43.455 67.2599 43.6554 67.3312 43.845C67.3983 44.0142 67.5165 44.1583 67.6693 44.2575C67.836 44.3605 68.0292 44.4126 68.2252 44.4075C68.5075 44.4216 68.7819 44.3121 68.9765 44.1075C69.1937 43.873 69.3236 43.5712 69.3447 43.2525H67.2185Z" fill="#636466"/>
<path d="M72.6353 45.1725H71.5985V40.5225H72.4925V40.995C72.9139 40.6389 73.4434 40.4354 73.9951 40.4175C74.4766 40.3439 74.9505 40.5895 75.1672 41.025C75.5959 40.6382 76.152 40.4221 76.7299 40.4175C77.684 40.4175 78.0747 40.95 78.0747 41.9925V45.1725H77.0454V42.1725C77.0454 41.6175 76.9102 41.3025 76.3918 41.3025C76.0022 41.3371 75.6338 41.4947 75.34 41.7525C75.34 41.8275 75.34 41.9175 75.34 42V45.195H74.3032V42.195C74.3032 41.64 74.1755 41.325 73.6646 41.325C73.2595 41.3596 72.877 41.5256 72.5752 41.7975L72.6353 45.1725Z" fill="#636466"/>
<path d="M93.9646 45.1725C93.9597 44.8942 93.9747 44.616 94.0097 44.34C93.7495 44.9302 93.1524 45.2998 92.5071 45.27C92.1671 45.288 91.8357 45.1595 91.5972 44.917C91.3586 44.6746 91.2358 44.3415 91.26 44.0025C91.26 42.9975 92.2592 42.4575 93.897 42.4575V42.27C93.897 41.64 93.6716 41.34 93.018 41.34C92.5511 41.3569 92.0919 41.4639 91.6657 41.655L91.4929 40.905C92.0237 40.7043 92.5856 40.5977 93.1532 40.59C94.4605 40.59 94.8662 41.19 94.8662 42.1575V43.9275C94.8662 44.3175 94.8662 44.775 94.8662 45.1575L93.9646 45.1725ZM93.897 43.1175C92.5672 43.1175 92.1991 43.4775 92.1991 43.8675C92.1903 44.0311 92.2516 44.1908 92.3677 44.3066C92.4838 44.4225 92.6437 44.4837 92.8076 44.475C93.4377 44.4196 93.9154 43.8836 93.897 43.2525V43.1175Z" fill="#636466"/>
<path d="M97.6233 45.2475C96.6692 45.2475 96.3837 44.88 96.3837 43.8825V41.445H95.5272V40.695H96.3912V39.2775L97.3529 39.015V40.695H98.5249V41.445H97.3529V43.5825C97.3529 44.25 97.4881 44.43 97.9389 44.43C98.1234 44.4303 98.3073 44.4101 98.4873 44.37L98.57 45.12C98.2595 45.1943 97.9424 45.237 97.6233 45.2475Z" fill="#636466"/>
<path d="M107.413 45.1725L106.909 41.91C106.827 41.3025 106.767 40.77 106.721 40.41C106.646 40.7475 106.541 41.16 106.391 41.6625L105.234 45.2025H104.242L103.153 41.865C102.997 41.372 102.867 40.8714 102.762 40.365C102.717 40.8825 102.664 41.415 102.597 41.985L102.206 45.1575H101.214L102.124 39.0825H103.296L104.468 42.6075C104.604 43.0163 104.72 43.4318 104.813 43.8525C104.926 43.4025 105.039 42.99 105.151 42.645L106.346 39.0825H107.525L108.449 45.1575L107.413 45.1725Z" fill="#636466"/>
<path d="M112.349 45.1725C112.346 44.8764 112.367 44.5806 112.409 44.2875C112.138 44.902 111.518 45.2886 110.846 45.2625C109.832 45.2625 109.516 44.61 109.516 43.83V40.695H110.47V43.5675C110.47 44.1225 110.621 44.46 111.139 44.46C111.815 44.46 112.311 43.71 112.311 42.8475V40.695H113.273V45.195L112.349 45.1725Z" fill="#636466"/>
<path d="M115.429 45.2625C115.094 45.2643 114.761 45.2214 114.437 45.135L114.512 44.3175C114.826 44.4281 115.156 44.484 115.489 44.4825C116 44.4825 116.346 44.2575 116.346 43.8975C116.346 42.9825 114.385 43.5375 114.385 41.9925C114.385 41.2425 114.978 40.605 116.21 40.605C116.495 40.6085 116.78 40.6387 117.059 40.695L117.007 41.445C116.732 41.3601 116.446 41.3171 116.158 41.3175C115.624 41.3175 115.406 41.535 115.406 41.8725C115.406 42.7575 117.39 42.27 117.39 43.77C117.36 44.6475 116.616 45.2625 115.429 45.2625Z" fill="#636466"/>
<path d="M121.131 47.3625V45.18C121.13 44.9011 121.153 44.6226 121.199 44.3475C120.964 44.9098 120.412 45.2743 119.802 45.27C118.735 45.27 118.141 44.52 118.141 43.17C118.141 41.625 119.013 40.635 120.538 40.635C121.064 40.6321 121.589 40.6748 122.108 40.7625V47.37L121.131 47.3625ZM121.131 41.46C120.9 41.4084 120.663 41.3832 120.425 41.385C119.674 41.385 119.133 41.8575 119.133 43.065C119.133 43.965 119.411 44.4675 120.019 44.4675C120.771 44.4675 121.131 43.62 121.131 42.84V41.46Z" fill="#636466"/>
<path d="M126.338 45.1725C126.336 44.8764 126.356 44.5806 126.398 44.2875C126.128 44.8994 125.512 45.2855 124.843 45.2625C123.821 45.2625 123.505 44.61 123.505 43.83V40.695H124.46V43.5675C124.46 44.1225 124.617 44.46 125.128 44.46C125.804 44.46 126.3 43.71 126.3 42.8475V40.695H127.262V45.195L126.338 45.1725Z" fill="#636466"/>
<path d="M132.145 43.05H129.298C129.298 44.0175 129.704 44.4825 130.62 44.4825C131.061 44.4806 131.497 44.394 131.905 44.2275L132.033 44.9775C131.526 45.1693 130.989 45.2684 130.447 45.27C129.073 45.27 128.306 44.52 128.306 42.975C128.306 41.6325 129.058 40.6125 130.365 40.6125C130.871 40.5726 131.369 40.762 131.72 41.1284C132.071 41.4948 132.238 41.9993 132.175 42.5025C132.174 42.6854 132.164 42.8681 132.145 43.05ZM130.312 41.325C129.771 41.325 129.388 41.7225 129.305 42.3825H131.214C131.229 41.7525 130.883 41.325 130.312 41.325Z" fill="#636466"/>
<path d="M135.661 45.1725C135.656 44.8942 135.672 44.616 135.706 44.34C135.448 44.9317 134.85 45.302 134.204 45.27C133.864 45.288 133.533 45.1595 133.294 44.917C133.055 44.6746 132.933 44.3415 132.957 44.0025C132.957 42.9975 133.956 42.4575 135.594 42.4575V42.27C135.594 41.64 135.368 41.34 134.715 41.34C134.248 41.3569 133.789 41.4639 133.362 41.655L133.19 40.905C133.721 40.7043 134.282 40.5977 134.85 40.59C136.157 40.59 136.563 41.19 136.563 42.1575V43.9275C136.563 44.3175 136.563 44.775 136.563 45.1575L135.661 45.1725ZM135.594 43.1175C134.264 43.1175 133.896 43.4775 133.896 43.8675C133.887 44.0311 133.948 44.1908 134.064 44.3066C134.181 44.4225 134.34 44.4837 134.504 44.475C135.134 44.4196 135.612 43.8836 135.594 43.2525V43.1175Z" fill="#636466"/>
<path d="M143.49 45.1725V42.315C143.49 41.7675 143.355 41.4075 142.844 41.4075C142.333 41.4075 141.687 42.045 141.687 43.035V45.1725H140.718V42.315C140.718 41.805 140.612 41.4075 140.071 41.4075C139.531 41.4075 138.929 42.09 138.929 43.035V45.1725H137.96V40.6725H138.884C138.883 40.9688 138.861 41.2646 138.817 41.5575C139.072 40.9566 139.665 40.5687 140.319 40.575C140.926 40.5162 141.474 40.9408 141.567 41.5425C141.83 40.9501 142.42 40.5701 143.069 40.575C143.926 40.575 144.399 41.0475 144.399 42.075V45.165L143.49 45.1725Z" fill="#636466"/>
<path d="M13.1252 36.015C13.1181 35.88 13.1702 35.7486 13.2679 35.655C13.3686 35.5701 13.4968 35.5247 13.6285 35.5275C13.8029 35.5201 13.9714 35.5918 14.0868 35.7225C14.2057 35.8653 14.2672 36.047 14.2596 36.2325C14.2651 36.5142 14.1536 36.7857 13.9516 36.9825C13.7048 37.1909 13.388 37.2981 13.0651 37.2825V36.9C13.2213 36.903 13.3751 36.8614 13.5083 36.78C13.5976 36.7287 13.6543 36.6353 13.6586 36.5325C13.5175 36.5272 13.3825 36.4743 13.2754 36.3825C13.1777 36.2853 13.1235 36.1527 13.1252 36.015Z" fill="#636466"/>
<path d="M62.8758 38.25C62.8655 38.1145 62.9182 37.9817 63.0186 37.89C63.1173 37.8018 63.2469 37.7559 63.3792 37.7625C63.55 37.7544 63.7154 37.8232 63.83 37.95C63.9506 38.0947 64.0123 38.2794 64.0028 38.4675C64.0083 38.7492 63.8968 39.0207 63.6948 39.2175C63.4476 39.4245 63.1303 39.5292 62.8082 39.51V39.135C62.9643 39.1368 63.1177 39.0952 63.2515 39.015C63.3417 38.9634 63.4007 38.8709 63.4093 38.7675C63.2683 38.7616 63.1334 38.7088 63.0261 38.6175C62.9269 38.5213 62.8724 38.388 62.8758 38.25Z" fill="#636466"/>
<path d="M84.3705 47.3925V38.3925H85.0091V47.3925H84.3705Z" fill="#636466"/>
</g>
<defs>
<clipPath id="clip0_379_3008">
<rect width="145" height="48" fill="white"/>
</clipPath>
</defs>
</svg>
