<svg width="206" height="48" viewBox="0 0 206 48" fill="none" xmlns="http://www.w3.org/2000/svg">
<path d="M113.609 26.5227C113.266 25.125 112.442 24.4432 111.446 24.4432C110.45 24.4432 109.901 25.0909 109.901 25.875C109.901 26.7614 110.416 27.1364 111.995 27.4091C113.952 27.75 114.879 28.5341 114.879 30.1364C114.879 31.0568 114.296 32.9318 111.48 32.9318C109.97 32.9318 108.974 32.4204 108.425 31.9773V29.5909H109.043C109.283 31.2613 110.176 32.2159 111.48 32.2159C112.682 32.2159 113.334 31.5341 113.334 30.6136C113.334 29.8295 113.025 29.3182 111.652 29.0454C109.661 28.6363 108.493 28.2614 108.493 26.4204C108.493 25.4659 109.077 23.7954 111.515 23.7954C112.854 23.7954 113.815 24.2045 114.227 24.5454V26.5568H113.609V26.5227ZM118.587 32.0795V24.5795L118.69 24.4773L119.411 24.4432V23.8295H116.184V24.4432L116.939 24.4773L117.042 24.5795V32.0795L116.939 32.1818L116.184 32.2159V32.8295H119.411V32.2159L118.69 32.1818L118.587 32.0795ZM128.544 25.6704V32.0795L128.441 32.1818L127.686 32.2159V32.8295H130.913V32.2159L130.192 32.1818L130.089 32.0795V24.6136L130.192 24.5114L130.913 24.4773V23.8636H128.098L126.072 29.625H126.038C125.763 28.7727 124.252 24.7159 123.978 23.8636H121.025V24.4773L121.78 24.5114L121.883 24.6136V32.0795L121.78 32.1818L121.025 32.2159V32.8295H123.634V32.2159L122.879 32.1818L122.776 32.0795V25.5682H122.845L125.008 31.5H126.381L128.441 25.6704H128.544ZM139.771 28.2954C139.771 25.7727 139.016 23.7614 136.338 23.7614C133.488 23.7614 132.698 26.0113 132.698 28.3295C132.698 30.9545 133.351 32.8977 136.2 32.8977C139.016 32.8977 139.771 30.9886 139.771 28.2954ZM134.415 28.3636C134.415 26.1136 134.621 24.4432 136.235 24.4432C137.78 24.4432 137.986 26.0795 137.986 28.0227C137.986 30.375 137.986 32.1818 136.235 32.1818C134.518 32.2159 134.415 30.3068 134.415 28.3636ZM147.839 30.4773L143.548 23.8295H141.144V24.4432L141.9 24.4773L142.003 24.5795V32.0454L141.9 32.1477L141.144 32.1818V32.7954H143.754V32.1818L143.067 32.1477L142.93 32.0454V25.7386H142.964L147.496 32.7954H148.766V24.5454L148.869 24.4432L149.59 24.4091V23.7954H146.981V24.4091L147.771 24.4432L147.874 24.5454L147.839 30.4773ZM157.35 28.7727H158.38C159.41 28.7727 159.513 28.9432 159.753 30H160.337V26.8977H159.753C159.547 27.9545 159.478 28.0909 158.38 28.0909H157.384V24.5454H159.032C160.302 24.5454 160.508 24.6136 160.852 25.9432H161.435V23.8295H154.912V24.4432L155.667 24.4773L155.77 24.5795V32.0454L155.667 32.1477L154.912 32.1818V32.7954H158.208V32.1818L157.453 32.1477L157.35 32.0454V28.7727ZM162.912 23.8295V24.4432L163.667 24.4773L163.77 24.5795V32.0795L163.667 32.1818L162.912 32.2159V32.8295H166.139V32.2159L165.452 32.1818L165.349 32.0795V28.875H166.345C166.654 29.5227 168.13 32.1818 168.439 32.8636H170.705V32.3182L170.156 32.2159C169.916 32.1818 169.847 32.1477 169.744 31.9432L167.856 28.7045C169.092 28.3977 169.675 27.4432 169.675 26.3182C169.675 24.8864 168.851 23.8636 166.654 23.8636H162.912V23.8295ZM166.379 24.5114C167.238 24.5114 167.89 25.0568 167.89 26.2841C167.89 27.5113 167.203 28.1591 166.311 28.1591H165.315V24.5114H166.379ZM175.546 23.8295L172.697 32.0454L172.594 32.1477L171.941 32.1818V32.7954H174.585V32.1818L173.761 32.1477L173.692 32.0454L174.242 30.4773H177.572L178.121 32.0795L178.053 32.1818L177.229 32.2159V32.8295H180.456V32.2159L179.872 32.1818L179.769 32.0795L176.954 23.8636H175.546V23.8295ZM175.855 25.6364H175.924L177.332 29.7954H174.448L175.855 25.6364ZM188.009 26.5227V24.5114C187.563 24.1704 186.636 23.7614 185.297 23.7614C182.825 23.7614 182.276 25.4318 182.276 26.3864C182.276 28.1932 183.443 28.5682 185.434 29.0113C186.808 29.3182 187.117 29.7954 187.117 30.5795C187.117 31.5 186.464 32.1818 185.263 32.1818C183.924 32.1818 183.065 31.2613 182.825 29.5568H182.207V31.9432C182.756 32.3863 183.752 32.8977 185.263 32.8977C188.044 32.8977 188.662 31.0227 188.662 30.1023C188.662 28.5 187.735 27.7159 185.778 27.375C184.198 27.1023 183.683 26.7273 183.683 25.8409C183.683 25.0568 184.267 24.4091 185.228 24.4091C186.19 24.4091 187.048 25.0909 187.391 26.4886H188.009V26.5227ZM195.357 29.7273V26.625H194.773C194.567 27.6818 194.498 27.8523 193.434 27.8523H192.404V24.5454H194.052C195.322 24.5454 195.528 24.6136 195.872 25.9432H196.455V23.8295H189.932V24.4432L190.687 24.4773L190.79 24.5795V32.0454L190.687 32.1477L189.932 32.1818V32.7954H196.593V30.3409H195.975C195.7 32.0795 195.288 32.0795 194.018 32.0795H192.37V28.4659H193.4C194.43 28.4659 194.533 28.6023 194.739 29.6591H195.357V29.7273ZM198.206 23.8295V24.4432L198.962 24.4773L199.065 24.5795V32.0795L198.962 32.1818L198.206 32.2159V32.8295H201.434V32.2159L200.747 32.1818L200.644 32.0795V28.875H201.64C201.949 29.5227 203.425 32.1818 203.734 32.8636H206V32.3182L205.451 32.2159C205.21 32.1818 205.142 32.1477 205.039 31.9432L203.15 28.7045C204.386 28.3977 204.97 27.4432 204.97 26.3182C204.97 24.8864 204.146 23.8636 201.949 23.8636H198.206V23.8295ZM201.674 24.5114C202.532 24.5114 203.185 25.0568 203.185 26.2841C203.185 27.5113 202.498 28.1591 201.605 28.1591H200.61V24.5114H201.674ZM114.742 39.6477V44.6591C114.742 45.7841 114.639 47.1818 112.648 47.1818C110.897 47.1818 110.553 46.0568 110.553 44.7613V39.6477L110.622 39.5454L111.343 39.5113V38.8977H108.116V39.5113L108.871 39.5454L108.94 39.6477V44.6932C108.94 46.4659 109.592 48 112.339 48C114.536 48 115.635 46.875 115.635 44.6591V39.6477L115.738 39.5454L116.424 39.5113V38.8977H113.884V39.5113L114.639 39.5454L114.742 39.6477ZM124.596 45.5454L120.304 38.8636H117.935V39.4773L118.69 39.5113L118.793 39.6136V47.0795L118.69 47.1818L117.935 47.2159V47.8295H120.544V47.2159L119.858 47.1818L119.72 47.0795V40.7727H119.789L124.321 47.8295H125.591V39.5795L125.694 39.4773L126.415 39.4432V38.8295H123.806V39.4432L124.596 39.4773L124.699 39.5795L124.596 45.5454ZM130.432 47.1136V39.6136L130.535 39.5113L131.256 39.4773V38.8636H128.029V39.4773L128.784 39.5113L128.887 39.6136V47.1136L128.784 47.2159L128.029 47.25V47.8636H131.256V47.25L130.535 47.2159L130.432 47.1136ZM137.677 47.8636L140.355 39.6477L140.458 39.5454L141.11 39.5113V38.8977H138.501V39.5113L139.325 39.5454L139.393 39.6477C139.084 40.6363 137.677 45.1363 137.368 46.125H137.299L135.308 39.6477L135.411 39.5454L136.235 39.5113V38.8977H133.007V39.5113L133.625 39.5454L133.728 39.6477L136.372 47.8636H137.677ZM147.805 44.7613V41.6591H147.221C147.015 42.7159 146.947 42.8863 145.882 42.8863H144.852V39.5795H146.5C147.771 39.5795 147.977 39.6477 148.32 40.9772H148.904V38.8636H142.38V39.4773L143.136 39.5113L143.239 39.6136V47.0795L143.136 47.1818L142.38 47.2159V47.8295H149.041V45.375H148.423C148.148 47.1136 147.736 47.1136 146.466 47.1136H144.818V43.5682H145.848C146.878 43.5682 146.981 43.7045 147.187 44.7613H147.805ZM151.067 38.8636V39.4773L151.822 39.5113L151.925 39.6136V47.1136L151.822 47.2159L151.067 47.25V47.8636H154.294V47.25L153.573 47.2159L153.47 47.1136V43.9091H154.466C154.775 44.5568 156.251 47.2159 156.56 47.8977H158.826V47.3522L158.277 47.25C158.036 47.2159 157.968 47.1818 157.865 46.9772L155.976 43.7386C157.212 43.4318 157.796 42.4773 157.796 41.3523C157.796 39.9204 156.972 38.8977 154.775 38.8977H151.067V38.8636ZM154.534 39.5454C155.393 39.5454 156.045 40.0909 156.045 41.3182C156.045 42.5454 155.358 43.1932 154.466 43.1932H153.504V39.5454H154.534ZM165.967 41.5568V39.5454C165.521 39.2045 164.594 38.7954 163.255 38.7954C160.783 38.7954 160.234 40.4659 160.234 41.4204C160.234 43.2273 161.401 43.6022 163.392 44.0454C164.766 44.3522 165.075 44.8295 165.075 45.6136C165.075 46.5341 164.422 47.2159 163.221 47.2159C161.882 47.2159 161.023 46.2954 160.783 44.5909H160.165V46.9772C160.714 47.4204 161.71 47.9318 163.221 47.9318C166.002 47.9318 166.62 46.0568 166.62 45.1363C166.62 43.5341 165.693 42.75 163.736 42.4091C162.156 42.1363 161.641 41.7613 161.641 40.875C161.641 40.0909 162.225 39.4432 163.186 39.4432C164.182 39.4432 165.006 40.125 165.349 41.5227H165.967V41.5568ZM170.705 47.1136V39.6136L170.808 39.5113L171.529 39.4773V38.8636H168.268V39.4773L169.023 39.5113L169.126 39.6136V47.1136L169.023 47.2159L168.268 47.25V47.8636H171.495V47.25L170.774 47.2159L170.705 47.1136ZM173.83 41.0454C174.139 39.6818 174.379 39.5795 175.649 39.5795H175.993V47.1136L175.89 47.2159L175.134 47.25V47.8636H178.396V47.25L177.675 47.2159L177.572 47.1136V39.5795H177.95C179.22 39.5795 179.46 39.6477 179.769 41.0454H180.353V38.8636H173.246V41.0454H173.83ZM188.456 39.6477L188.559 39.5454L189.177 39.5113V38.8977H186.567V39.5113L187.391 39.5454L187.46 39.6477L185.778 43.2273H185.709L184.027 39.6477L184.13 39.5454L184.919 39.5113V38.8977H181.658V39.5113L182.276 39.5454L182.379 39.6477L184.61 44.3522V47.1477L184.507 47.25L183.752 47.2841V47.8977H187.014V47.2841L186.293 47.25L186.19 47.1477V44.25L188.456 39.6477Z" fill="#414042"/>
<path d="M96.614 0H0V47.9659H96.614V0Z" fill="#A6192E"/>
<path d="M54.0408 27.3409C52.9078 26.5568 52.3928 26.3181 51.3971 25.9772C50.7791 25.8068 49.9895 25.6363 49.4745 25.6363C47.5861 25.6363 46.3501 26.7613 46.3501 28.5C46.3501 29.3863 46.7621 30.2045 47.5175 30.8181C48.1698 31.3295 48.6161 31.534 51.4314 32.9659C53.4571 33.9545 54.3155 34.6022 54.8991 35.5227C55.3455 36.2045 55.5858 37.159 55.5858 38.1477C55.5858 39.4431 55.1738 40.6363 54.2811 41.7954C52.9765 43.4659 50.9508 44.3522 48.2384 44.3522C47.6204 44.3522 46.9681 44.284 46.2128 44.1818C44.7365 43.9772 44.1528 43.7727 42.7451 43.0909C43.2945 41.9318 43.3975 41.4886 43.6378 40.0909C44.5991 40.909 45.0111 41.2159 45.7321 41.5227C46.7278 42.034 47.8265 42.2727 48.8908 42.2727C51.2941 42.2727 52.9764 40.909 52.9764 38.8636C52.9764 37.875 52.4615 37.0227 51.3971 36.3068C50.7105 35.8295 50.2641 35.625 48.6848 34.9091C47.1398 34.2272 46.5561 33.9204 45.8351 33.4091C44.4275 32.4204 43.7408 31.125 43.7408 29.3522C43.7408 27.8181 44.3588 26.3863 45.3888 25.3636C46.5218 24.2386 47.9981 23.7272 50.1268 23.7272C51.1224 23.7272 52.0495 23.8295 53.0108 24.0681C53.6975 24.2045 54.0751 24.3409 54.9678 24.6818C54.6588 25.2272 54.5901 25.3636 54.4184 25.875C54.2468 26.4886 54.1781 26.6931 54.0408 27.3409ZM71.1388 26.7954C71.0701 26.1818 71.0358 25.6704 71.0358 25.3636C71.0358 24.9545 71.0701 24.6136 71.1731 23.8636C70.0058 24 69.5594 24 68.8728 24H65.7828L62.2121 23.9659L60.1521 23.8977C60.2895 26.25 60.2894 27.2386 60.3581 28.7386V30.3409V36.9545C60.3581 39.1022 60.3238 40.534 60.2894 41.2159C60.2208 41.8295 60.1521 42.784 60.0491 44.0113C60.7358 43.9431 61.2508 43.909 61.6284 43.909C62.0404 43.909 62.6928 43.9431 63.5168 44.0454C63.3108 41.4204 63.3108 40.9772 63.3108 37.3977V34.8409H66.4694C67.7398 34.8409 68.5294 34.909 70.4178 35.1477C70.3491 34.534 70.3148 34.0227 70.3148 33.7159C70.3148 33.3068 70.3491 32.9659 70.4521 32.1818C68.8041 32.4204 68.2548 32.4545 66.8471 32.4545H63.2764V31.1931V27.6818L63.3108 26.4886H66.5381C67.3621 26.4886 68.6668 26.5568 69.7311 26.6591C70.1431 26.6931 70.5551 26.7272 71.1388 26.7954ZM79.3444 23.8977C78.5891 24 78.0054 24.0341 77.6278 24.0341C77.2158 24.0341 76.6664 23.9659 75.8768 23.8977C75.9798 25.0227 76.0141 25.4659 76.0484 26.3863V27.8863V29.4204L76.0828 36.5454C76.0828 39.409 76.1858 39.9886 76.8724 41.1477C77.2844 41.8295 77.9024 42.4772 78.6578 42.9886C80.0654 43.9772 81.6104 44.3522 84.4258 44.3522C87.0694 44.3522 88.6831 43.9772 90.1251 42.9545C92.2538 41.4886 92.7001 40.159 92.7001 35.3181L92.6658 30.6136C92.6658 30.2386 92.7001 29.2159 92.7344 27.5454C92.7344 26.2841 92.7688 25.3977 92.8031 24.9204C92.8374 24.7159 92.8718 24.4091 92.9061 24C92.2194 24.0681 91.7044 24.1363 91.3611 24.1363C91.0178 24.1363 90.5028 24.0681 89.8504 24C89.9534 25.0568 90.0221 25.4659 90.0564 26.3863C90.1595 27.5795 90.1938 29.0113 90.1938 30.6136V35.2841C90.1938 38.5909 90.0908 39.3068 89.4728 40.2272C89.2324 40.5681 88.8204 40.909 88.2711 41.25C87.2411 41.8977 86.1424 42.1363 84.6318 42.1363C82.4688 42.1363 80.4774 41.3522 79.7221 40.2613C79.1041 39.375 79.1041 39 79.0698 35.8977V29.7613C79.0698 29.4204 79.1041 28.8409 79.1384 28.125C79.1384 27.375 79.1728 26.8977 79.1728 26.7272C79.1728 25.5 79.2071 25.0568 79.3444 23.8977Z" fill="white"/>
</svg>
